# xmcd
#
# Track frame offsets:
#	150
#	5534
#	25483
#	38677
#	65716
#	71171
#	82606
#	106743
#	133497
#	153489
#	175186
#	194828
#	215385
#	235983
#	255538
#	294163
#	321141
#
# Disc length: 4492 seconds
#
# Revision: 0
# Processed by: cddbd v1.5.2PL0 Copyright (c) Steve Scherf et al.
# Submitted via: EasyCDDAExtractor 11.6.0.1
#
DISCID=f2118a11
DTITLE=Jimi Hendrix - Studio 69 (06)
DYEAR=1969
DGENRE=Blues
TTITLE0=Mannish Boy (44)
TTITLE1=Mannish Boy (48)
TTITLE2=Mannish Boy (49)
TTITLE3=Mannish Boy (50)
TTITLE4=Mannish Boy (51)
TTITLE5=Mannish Boy (52)
TTITLE6=MB45
TTITLE7=MB46
TTITLE8=Crash Landing 1
TTITLE9=Crash Landing 2
TTITLE10=Crash Landing 3
TTITLE11=Crash Landing 4
TTITLE12=Crash Landing 5
TTITLE13=Crash Landing 6
TTITLE14=Drone Blues 1
TTITLE15=Drone Blues 2
TTITLE16=Ships Passing In The Night 
EXTD=
EXTT0=
EXTT1=
EXTT2=
EXTT3=
EXTT4=
EXTT5=
EXTT6=
EXTT7=
EXTT8=
EXTT9=
EXTT10=
EXTT11=
EXTT12=
EXTT13=
EXTT14=
EXTT15=
EXTT16=
PLAYORDER=
